<svg width="138" height="159" viewBox="0 0 138 159" fill="none" xmlns="http://www.w3.org/2000/svg">
<path fill-rule="evenodd" clip-rule="evenodd" d="M77.7882 4.69813C77.7882 5.4078 77.785 6.11851 77.7886 6.82615C77.7946 7.85248 77.6852 8.86149 77.3806 9.84608C76.838 11.5943 76.741 13.4179 76.5087 15.218C76.43 15.833 76.354 16.45 76.2693 17.063C76.245 17.2361 76.2089 17.4132 76.15 17.5762C76.0649 17.8185 75.732 18.015 75.5077 17.9121C75.3243 17.8286 75.1083 17.6647 75.0543 17.4896C74.9794 17.2513 75.0261 16.9663 75.0547 16.7056C75.2101 15.2975 75.3943 13.8893 75.5311 12.4801C75.5773 12.0026 75.588 11.5006 75.4918 11.0353C74.9051 8.18747 74.9472 5.30396 74.9751 2.4225C74.9787 2.02744 75.0284 1.62423 75.1194 1.23936C75.3068 0.441098 75.9448 -0.0679794 76.6193 0.00736633C77.3722 0.092894 77.8685 0.810712 77.853 1.50613C77.8288 2.57014 77.8467 3.63412 77.8467 4.69813C77.8268 4.69813 77.8081 4.69813 77.7882 4.69813Z" fill="#0A210F"/>
<path fill-rule="evenodd" clip-rule="evenodd" d="M51.5772 18.3305C51.2778 18.0861 51.0966 17.966 50.951 17.8143C49.6314 16.4265 48.4279 14.9745 47.7804 13.1153C47.4169 12.0727 46.8528 11.1024 46.3834 10.0984C45.968 9.21059 45.69 8.27897 45.5098 7.31475C45.3999 6.72725 45.461 6.17234 45.7318 5.63474C45.9466 5.2071 46.2704 4.90775 46.751 4.88738C47.2367 4.86396 47.594 5.13683 47.8099 5.56345C47.9484 5.84039 48.0818 6.12856 48.1591 6.42485C48.9391 9.4397 50.0815 12.3211 51.3237 15.167C51.7874 16.232 51.8233 16.6668 51.5772 18.3305Z" fill="#0A210F"/>
<path fill-rule="evenodd" clip-rule="evenodd" d="M125.138 72.2648C125.751 71.3576 126.564 71.3219 127.44 71.4828C129.443 71.8504 131.452 72.1782 133.421 72.724C134.523 73.0274 135.607 73.4153 136.799 73.3512C137.597 73.3084 138.024 74.1464 137.673 74.8734C137.45 75.3366 137.102 75.6859 136.591 75.7734C136.16 75.8457 135.704 75.8885 135.277 75.8284C134.533 75.7245 133.801 75.5372 133.066 75.3743C131.595 75.0515 130.126 74.7288 128.66 74.3877C128.1 74.2563 127.541 74.1056 127.005 73.904C126.2 73.6027 125.524 73.1241 125.138 72.2648Z" fill="#0A210F"/>
<path fill-rule="evenodd" clip-rule="evenodd" d="M109.906 13.8194C110.528 13.8265 111.021 14.3722 110.863 14.972C110.765 15.3416 110.536 15.6867 110.317 16.0095C110.198 16.1836 109.982 16.2966 109.8 16.4219C106.909 18.4002 104.12 20.5261 101.131 22.364C100.53 22.7336 100.002 23.2223 99.4288 23.6387C99.0196 23.9371 98.6728 23.9228 98.5061 23.6367C98.3613 23.3893 98.4075 23.1164 98.7961 22.8517C100.179 21.9099 101.141 20.5699 102.2 19.3227C102.835 18.5733 103.532 17.9023 104.335 17.3341C105.711 16.3608 107.071 15.365 108.445 14.3906C108.881 14.0821 109.338 13.8021 109.906 13.8194Z" fill="#0A210F"/>
<path fill-rule="evenodd" clip-rule="evenodd" d="M14.4728 65.3481C14.3303 65.5721 14.2845 65.7412 14.1918 65.7707C13.8986 65.8674 13.589 65.9193 13.2836 65.9753C12.744 66.0721 12.2705 66.2859 11.8846 66.686C11.2513 67.3458 10.4561 67.7042 9.59369 67.9852C7.94728 68.5208 6.32328 69.1266 4.68604 69.6907C3.84706 69.9799 2.99484 70.2303 2.1528 70.5154C1.55003 70.7201 1.00428 70.547 0.491111 70.268C-0.149327 69.9229 -0.168674 69.1338 0.464638 68.7601C0.998167 68.4455 1.56225 68.1695 2.14058 67.9486C3.63324 67.3774 5.132 66.8184 6.64706 66.3083C8.21506 65.7788 9.83296 65.5396 11.4987 65.5996C12.1117 65.622 12.7307 65.4897 13.3467 65.4337C13.6858 65.4021 14.0259 65.3817 14.4728 65.3481Z" fill="#0A210F"/>
<path fill-rule="evenodd" clip-rule="evenodd" d="M15.5837 43.5196C15.1265 43.654 14.9738 43.7396 14.8262 43.7324C14.4291 43.7141 14.0289 43.6795 13.6359 43.6113C12.5383 43.425 11.4397 43.3537 10.3237 43.4036C7.94933 43.5105 5.635 43.1185 3.38685 42.3844C2.7627 42.1817 2.17724 41.8406 1.60604 41.5087C1.25579 41.3081 1.03381 40.963 0.970682 40.5384C0.832209 39.5996 1.60094 38.8838 2.52545 39.1048C2.65374 39.1343 2.78917 39.1669 2.90321 39.23C4.00692 39.8369 5.22263 40.0955 6.42918 40.3918C8.07254 40.7929 9.67312 41.3122 11.1006 42.252C11.793 42.7081 12.5627 42.8639 13.3651 42.9413C14.0167 43.0044 14.6816 43.0289 15.5837 43.5196Z" fill="#0A210F"/>
<path fill-rule="evenodd" clip-rule="evenodd" d="M15.2272 104.608C15.3056 104.463 15.3871 104.191 15.5642 104.019C15.8157 103.777 16.1191 103.572 16.4327 103.415C19.2826 101.987 22.1376 100.567 25.0873 99.3518C25.1688 99.3171 25.2543 99.2917 25.3408 99.2744C25.6514 99.2102 25.9548 99.3721 26.1136 99.6633C26.2613 99.9332 26.2236 100.219 26.0393 100.409C25.0221 101.444 24.0579 102.545 22.6915 103.169C21.039 103.923 19.4028 104.711 17.7604 105.485C17.1668 105.765 16.5559 105.761 15.944 105.583C15.5418 105.467 15.2313 105.064 15.2272 104.608Z" fill="#0A210F"/>
<path fill-rule="evenodd" clip-rule="evenodd" d="M18.1749 19.4874C18.4977 19.6442 19.0832 19.8601 19.6014 20.1859C21.1501 21.1552 22.5267 22.3394 23.8126 23.6355C24.844 24.6751 25.9101 25.679 26.9568 26.7013C27.1136 26.855 27.2948 27.0088 27.3854 27.1992C27.4435 27.3214 27.3946 27.5341 27.3223 27.6696C27.2856 27.7357 27.0769 27.7632 26.971 27.7296C26.8102 27.6777 26.6401 27.583 26.5261 27.4598C25.682 26.5536 24.5824 26.0832 23.4756 25.6149C21.5879 24.8176 19.8213 23.8107 18.1546 22.6153C17.4724 22.1256 17.0091 21.5055 16.7953 20.7062C16.5998 19.9731 17.1435 19.3785 18.1749 19.4874Z" fill="#0A210F"/>
<path fill-rule="evenodd" clip-rule="evenodd" d="M129.592 38.8754C130.287 38.8724 130.676 39.0403 130.888 39.4955C131.087 39.9272 130.991 40.4567 130.555 40.814C130.151 41.1439 129.691 41.43 129.216 41.65C128.213 42.1163 127.2 42.5663 126.163 42.9502C124.92 43.4124 123.653 43.8126 122.389 44.2127C121.964 44.3471 121.543 44.1231 121.39 43.7647C121.235 43.4002 121.36 42.9044 121.755 42.7364C123.115 42.156 124.098 40.9861 125.452 40.4088C126.469 39.974 127.477 39.5199 128.507 39.1198C128.913 38.9619 129.365 38.9243 129.592 38.8754Z" fill="#0A210F"/>
<path fill-rule="evenodd" clip-rule="evenodd" d="M113.525 98.2959C113.761 98.1411 113.916 97.9782 114.096 97.9405C114.246 97.909 114.43 98.0169 114.593 98.0811C115.126 98.2959 115.643 98.5596 116.191 98.7276C117.375 99.089 118.342 99.7723 119.17 100.661C119.926 101.472 120.646 102.317 121.376 103.153C121.521 103.319 121.66 103.497 121.761 103.692C122.006 104.162 121.933 104.696 121.6 105.052C121.238 105.438 120.631 105.541 120.135 105.251C119.869 105.097 119.624 104.893 119.413 104.671C118.923 104.155 118.456 103.621 117.991 103.084C117.061 102.011 116.158 100.915 115.205 99.8629C114.854 99.476 114.387 99.199 113.988 98.8528C113.831 98.7184 113.718 98.5321 113.525 98.2959Z" fill="#0A210F"/>
<path fill-rule="evenodd" clip-rule="evenodd" d="M74.706 152.431C73.4349 152.76 72.3225 153.058 71.2037 153.333C70.9062 153.405 70.5895 153.424 70.2801 153.428C69.392 153.44 68.5026 153.437 67.6142 153.429C67.3484 153.426 67.0752 153.418 66.8207 153.354C65.746 153.083 64.6789 152.787 63.6042 152.511C63.4953 152.484 63.3672 152.527 63.2295 152.539C63.3962 153.72 63.92 154.647 64.7636 155.434C65.2461 155.882 65.765 156.123 66.417 156.183C67.2105 156.256 67.9967 156.492 68.7866 156.493C69.5753 156.494 70.3637 156.29 71.1543 156.185C71.4172 156.15 71.6913 156.174 71.9482 156.117C72.2031 156.06 72.4804 155.983 72.6832 155.831C73.7777 155.007 74.5521 153.979 74.706 152.431ZM59.4209 142.013C59.4917 142.574 59.6206 143.012 59.5868 143.436C59.5108 144.384 60.0661 144.806 60.8209 145.104C61.1097 145.218 61.3996 145.34 61.6991 145.418C63.467 145.87 65.2461 146.243 67.0859 146.245C68.2418 146.247 69.4127 146.208 70.5486 146.374C72.0091 146.587 73.4452 146.782 74.9113 146.494C75.1419 146.449 75.4338 146.384 75.5898 146.691C75.5066 147.045 75.2087 147 74.9633 147.041C73.9571 147.208 72.9401 147.325 71.9462 147.55C71.2048 147.717 70.473 147.865 69.7113 147.866C68.9998 147.867 68.2883 147.888 67.5771 147.906C65.0138 147.973 62.5312 147.558 60.1233 146.679C60.0147 146.639 59.8866 146.653 59.7304 146.638C59.5947 147.125 59.6091 147.599 59.9236 147.929C61.021 149.08 62.1485 150.208 63.5844 150.954C63.7001 151.015 63.8353 151.042 63.965 151.075C64.8253 151.286 65.7003 151.447 66.5407 151.718C67.1929 151.928 67.8356 151.979 68.5078 151.975C69.6183 151.968 70.7299 152.044 71.7931 151.606C71.9915 151.525 72.239 151.575 72.4517 151.521C73.6958 151.2 74.9589 150.936 75.8972 149.926C76.318 149.473 76.8025 149.066 77.3032 148.699C78.0569 148.149 78.3584 147.433 78.3413 146.517C78.3218 145.45 78.356 144.382 78.3592 143.316C78.36 143.072 78.4781 142.792 78.1564 142.573C77.9774 142.619 77.7598 142.659 77.5534 142.73C76.316 143.147 75.0353 143.26 73.7404 143.284C72.54 143.306 71.3389 143.318 70.139 143.366C67.8608 143.456 65.6087 143.202 63.3695 142.828C62.102 142.618 60.8491 142.311 59.4209 142.013ZM57.579 139.759C57.7468 139.861 57.8857 139.981 58.046 140.041C58.5865 140.243 59.125 140.457 59.6803 140.608C63.0828 141.538 66.551 142.005 70.0789 142.028C70.7001 142.032 71.3253 142.004 71.9442 142.051C73.8131 142.198 75.6701 142.023 77.5338 141.943C78.9044 141.886 79.4513 140.803 80.3303 140.125C80.3895 140.079 80.4238 139.964 80.4226 139.883C80.4099 139.087 80.5291 138.253 80.3299 137.503C80.1028 136.651 79.8466 135.817 79.8741 134.822C79.3077 134.944 78.8353 135.043 78.364 135.148C76.9778 135.454 75.6057 135.859 74.2037 136.05C71.2903 136.449 68.3611 136.5 65.4374 136.087C63.1524 135.763 60.8436 135.596 58.5905 135.057C58.4712 135.028 58.3383 135.053 58.1999 135.053C58.079 135.639 58.0499 136.229 57.8332 136.742C57.4119 137.734 57.4843 138.729 57.579 139.759ZM79.9939 134.454C80.7392 133.699 81.4209 133.003 82.1089 132.314C82.4924 131.929 82.8328 131.517 82.8694 130.949C82.9262 130.063 82.9756 129.175 82.9915 128.289C82.9955 128.043 82.8718 127.796 82.7858 127.473C82.3889 127.54 82.0338 127.558 81.7084 127.666C80.0873 128.198 78.4312 128.362 76.7269 128.349C71.7967 128.312 66.8652 128.317 61.9334 128.347C59.9261 128.36 57.9437 128.306 56.0299 127.598C55.7622 127.5 55.4377 127.555 55.0571 127.533C55.0014 127.943 54.9103 128.287 54.9198 128.627C54.9401 129.337 55.0169 130.044 55.0662 130.753C55.139 131.813 55.7367 132.485 56.7013 132.798C57.7119 133.127 58.736 133.46 59.7813 133.626C61.929 133.965 64.0931 134.201 66.2531 134.465C68.7787 134.775 71.3078 134.637 73.8385 134.519C74.7227 134.478 75.6212 134.456 76.4962 134.565C77.7049 134.713 78.8818 134.565 79.9939 134.454ZM68.9493 126.664C68.9493 126.662 68.9493 126.661 68.9493 126.66C70.9498 126.66 72.9505 126.642 74.951 126.665C77.3577 126.691 79.731 126.513 82.072 125.888C83.4461 125.521 84.59 124.802 85.6313 123.886C85.852 123.691 86.0396 123.402 86.1252 123.121C86.5873 121.598 87.0467 120.071 87.0415 118.453C87.0415 118.189 87.0822 117.92 87.1375 117.661C87.7317 114.861 88.8278 112.248 90.1495 109.723C90.6438 108.779 91.1975 107.864 91.6481 106.9C92.5016 105.075 93.6224 103.427 94.8653 101.857C97.1264 98.9996 99.4026 96.1527 101.686 93.314C102.158 92.7275 102.613 92.084 103.208 91.6462C104.481 90.7085 105.425 89.4683 106.472 88.3269C107.038 87.7109 107.545 87.0094 107.938 86.2722C108.854 84.5454 109.725 82.7941 110.533 81.0153C110.877 80.2578 111.105 79.4198 111.226 78.5961C111.453 77.0648 111.89 75.5528 111.758 73.9776C111.748 73.8483 111.776 73.7088 111.814 73.5816C112.078 72.7171 112.065 71.8262 112.058 70.9384C112.041 68.625 112.018 66.3138 111.991 64.0025C111.987 63.6482 112.004 63.2775 111.914 62.9415C111.564 61.6413 111.502 60.3187 111.438 58.9839C111.389 57.9636 111.221 56.8986 110.624 56.0647C110.005 55.2023 109.722 54.2493 109.418 53.279C109.14 52.387 108.857 51.5002 108.592 50.6062C108.372 49.867 108.021 49.1971 107.48 48.6564C106.994 48.1697 106.675 47.5985 106.438 46.9713C106.01 45.8421 105.4 44.8128 104.768 43.7905C103.64 41.9649 102.345 40.3073 100.64 38.9541C98.7594 37.4615 96.6492 36.3048 94.7881 34.7918C94.5853 34.6278 94.3205 34.5403 94.0845 34.4161C92.6317 33.6504 91.1501 32.9336 89.7314 32.1078C87.4484 30.7801 85.0402 29.7752 82.4935 29.0991C81.899 28.9433 81.275 28.8904 80.6664 28.7845C79.1741 28.5197 77.6692 28.4933 76.159 28.477C75.41 28.4678 74.6416 28.3833 73.9193 28.1919C72.9568 27.9353 71.9907 27.9048 71.0139 27.8986C69.9913 27.8895 68.9688 27.9098 67.9458 27.8986C67.4586 27.8915 66.9674 27.8712 66.4858 27.8019C64.404 27.5005 62.3159 27.5749 60.2295 27.6838C59.3362 27.7317 58.4608 27.9302 57.7234 28.481C57.4196 28.7091 57.0998 28.7824 56.7355 28.8099C56.4292 28.8333 56.1262 28.9199 55.8266 28.9963C53.1905 29.6815 50.6682 30.6477 48.3223 32.0498C48.0179 32.2331 47.688 32.3705 47.3754 32.5375C45.8868 33.3307 44.3982 34.1249 42.9157 34.9282C42.6826 35.0565 42.4718 35.2245 42.2611 35.3864C41.5198 35.9545 40.7653 36.5084 40.0516 37.1081C39.6474 37.4462 39.2106 37.8076 38.9662 38.2566C38.6251 38.8828 38.1282 39.2799 37.555 39.6261C36.2263 40.4264 35.2417 41.5454 34.4679 42.8762C34.2245 43.2946 33.9577 43.7304 33.6055 44.0511C32.9966 44.606 32.6188 45.2953 32.2167 45.9877C31.7259 46.8287 31.2321 47.682 30.6232 48.4354C30.0255 49.1757 29.5348 49.9403 29.2609 50.8516C28.8271 52.2974 28.3801 53.7402 27.9281 55.1809C27.8079 55.5617 27.7142 55.9731 27.4963 56.2938C26.6462 57.5462 26.2562 58.9278 26.19 60.4215C26.1829 60.5987 26.1747 60.786 26.1096 60.9469C25.6982 61.9671 25.7308 63.0372 25.7471 64.1033C25.7746 65.9238 25.9273 67.7484 25.8428 69.5638C25.7349 71.8476 26.2806 74.0672 26.3153 76.3317C26.3183 76.5496 26.4059 76.7644 26.4476 76.9833C26.5057 77.2878 26.5902 77.5912 26.6034 77.8977C26.6594 79.1663 27.0463 80.3403 27.5941 81.4664C28.2152 82.7463 28.877 84.0068 29.4767 85.2958C30.5682 87.6478 32.3429 89.4551 34.196 91.1839C34.9118 91.8529 35.6143 92.5239 36.2263 93.2824C38.4316 96.0122 40.6106 98.7643 42.8037 101.505C44.2516 103.316 45.5539 105.216 46.5048 107.341C46.7584 107.908 47.0475 108.461 47.3601 108.997C48.5504 111.037 49.5217 113.173 50.2029 115.432C50.4829 116.364 50.823 117.32 50.8576 118.275C50.9177 119.941 51.3606 121.507 51.7909 123.085C51.8676 123.368 52.0598 123.657 52.2778 123.858C53.1996 124.709 54.229 125.405 55.4448 125.765C56.0828 125.953 56.7374 126.08 57.3846 126.235C58.775 126.567 60.1949 126.642 61.6144 126.655C64.0593 126.681 66.504 126.664 68.9493 126.664ZM53.5238 126.884C52.7773 126.624 52.0975 126.114 51.2343 126.001C50.9482 125.964 50.5735 125.804 50.435 125.581C49.9321 124.762 49.2499 124.011 49.2153 122.972C49.203 122.616 49.1939 122.26 49.2051 121.905C49.2254 121.274 49.1542 120.688 48.8029 120.122C48.6033 119.801 48.5677 119.367 48.5096 118.975C48.4648 118.671 48.4648 118.35 48.5005 118.044C48.6807 116.514 48.0698 115.185 47.4772 113.846C47.3357 113.521 47.2196 113.187 47.0832 112.861C46.7716 112.125 46.4763 111.383 46.1322 110.662C45.9622 110.305 45.7656 109.903 45.4653 109.678C44.7098 109.11 44.3453 108.331 44.0215 107.493C43.88 107.126 43.6407 106.794 43.4269 106.456C43.2843 106.232 43.0695 106.046 42.9555 105.811C42.3588 104.581 41.3874 103.669 40.4293 102.738C40.1483 102.463 39.908 102.13 39.7044 101.791C39.3185 101.146 38.9886 100.464 38.6027 99.8161C37.9684 98.7521 37.2312 97.795 36.3179 96.9143C34.3996 95.0663 32.5364 93.1399 30.8441 91.0862C29.5225 89.4836 28.4025 87.6916 27.363 85.8863C26.6838 84.7052 26.2939 83.3551 25.8011 82.0702C25.4203 81.0744 25.0965 80.0572 24.7228 79.0594C24.3899 78.1736 24.1974 77.2684 24.2107 76.3235C24.229 75.0793 24.2697 73.8341 24.2667 72.5888C24.2656 71.6134 24.283 70.6288 24.1669 69.6626C23.8726 67.223 23.9072 64.7956 24.1068 62.3479C24.2646 60.4225 24.6739 58.5766 25.2248 56.7428C25.7105 55.1198 26.3906 53.5844 27.1135 52.053C27.9871 50.2071 29.1489 48.5057 29.8249 46.564C29.8545 46.4815 29.8891 46.397 29.939 46.3227C30.7535 45.109 31.5671 43.8943 32.3897 42.6837C32.5384 42.4648 32.7492 42.2856 32.8795 42.0565C34.362 39.4591 36.4839 37.4533 38.7962 35.6216C39.4926 35.0697 40.1972 34.525 40.9018 33.9843C41.2195 33.741 41.5269 33.4753 41.8731 33.2828C43.4289 32.4255 44.9949 31.5865 46.5608 30.7496C47.5006 30.2456 48.4506 29.7619 49.3924 29.263C51.3718 28.2153 53.509 27.6064 55.6549 27.024C55.9512 26.9446 56.2702 26.9477 56.5767 26.9059C56.751 26.8805 56.9479 26.8835 57.0906 26.801C58.4493 26.0007 59.9706 25.9142 61.4696 25.8949C65.2043 25.8429 68.9397 25.8796 72.6753 25.8775C73.4811 25.8775 74.2633 25.9804 75.0365 26.2319C75.9251 26.52 76.8422 26.6768 77.7833 26.7013C78.3131 26.7155 78.8401 26.8133 79.3694 26.8591C79.7659 26.8937 80.17 26.9578 80.5633 26.9222C81.469 26.8438 82.3293 27.0199 83.1908 27.2572C85.7327 27.9557 88.1484 28.9433 90.4393 30.2527C91.9424 31.11 93.486 31.8971 95.0224 32.6964C95.8142 33.1087 96.564 33.571 97.2497 34.1483C97.8268 34.635 98.4329 35.0901 99.043 35.5361C100.921 36.9137 102.521 38.5774 103.971 40.3877C104.33 40.8357 104.617 41.3407 104.933 41.8244C105.005 41.9364 105.034 42.085 105.126 42.1726C106.141 43.1378 106.679 44.4381 107.494 45.5438C107.782 45.9317 108.044 46.3624 108.209 46.8135C108.547 47.74 109.052 48.5709 109.506 49.4363C111.184 52.6253 112.754 55.8641 113.439 59.4471C113.891 61.8144 114.076 64.2051 113.987 66.6111C113.943 67.8074 113.779 68.9997 113.692 70.1971C113.644 70.861 113.619 71.5289 113.627 72.1938C113.642 73.439 113.697 74.6832 113.718 75.9285C113.739 77.1401 113.534 78.3029 113.08 79.4422C112.406 81.1324 111.817 82.8583 111.185 84.5647C111.046 84.9404 110.914 85.3243 110.719 85.6694C109.583 87.6865 108.369 89.6618 106.847 91.4069C105.299 93.1806 103.633 94.8494 102.017 96.5661C101.865 96.7259 101.73 96.9204 101.547 97.0355C100.642 97.6006 100.14 98.4986 99.6126 99.3671C99.1285 100.162 98.7233 101.005 98.2285 101.794C97.9501 102.239 97.5973 102.653 97.2179 103.018C95.6345 104.553 94.4146 106.327 93.5583 108.359C93.4398 108.639 93.2804 108.948 93.0497 109.124C91.9579 109.951 91.5196 111.177 91.022 112.359C90.5603 113.459 90.1924 114.6 89.7259 115.699C89.5269 116.165 89.4295 116.62 89.4359 117.115C89.4422 117.694 89.4662 118.275 89.418 118.849C89.3806 119.285 89.3472 119.777 89.1273 120.127C88.7637 120.704 88.6946 121.309 88.776 121.919C88.9506 123.21 88.341 124.24 87.7674 125.288C87.5435 125.697 87.1609 125.967 86.6983 126.008C85.8222 126.083 85.1723 126.681 84.2972 126.873C84.6859 128.291 84.7105 129.664 84.8286 131.03C84.9281 132.182 84.5956 133.115 83.7699 133.917C83.2671 134.407 82.7088 134.864 82.4188 135.48C82.4299 135.629 82.4065 135.733 82.4459 135.801C83.2815 137.278 83.1713 138.89 83.0925 140.488C83.0568 141.229 82.7186 141.852 82.0724 142.273C81.9236 142.37 81.7801 142.476 81.6353 142.579C81.2458 142.858 81.0494 143.231 81.0582 143.715C81.0713 144.382 81.0757 145.049 81.0753 145.716C81.0753 146.293 81.1146 146.878 81.0466 147.448C80.8811 148.835 80.314 150.012 79.0619 150.746C78.1862 151.26 77.2873 151.733 76.3645 152.245C76.2571 152.734 76.1239 153.292 76.0126 153.855C75.6582 155.643 74.5433 156.837 73.0327 157.74C72.4402 158.095 71.8205 158.248 71.1301 158.215C70.4197 158.183 69.7046 158.173 68.9954 158.219C67.7327 158.301 66.5351 158.053 65.3304 157.695C63.5824 157.174 62.59 155.956 62.0332 154.319C61.8068 153.651 61.711 152.939 61.55 152.223C60.7656 151.798 59.953 151.36 59.1433 150.919C57.5782 150.066 56.9391 148.664 56.8421 146.965C56.8031 146.302 56.8559 145.632 56.8659 144.967C56.8703 144.655 56.8596 144.342 56.8767 144.032C56.9176 143.303 56.6774 142.75 56.0148 142.369C55.1636 141.879 54.8216 141.092 54.8443 140.125C54.8562 139.592 54.8614 139.058 54.8443 138.524C54.8184 137.709 54.9433 136.927 55.3346 136.204C55.6095 135.697 55.5076 135.273 55.1159 134.88C54.74 134.502 54.3809 134.107 54.0066 133.727C53.2712 132.98 52.9778 132.095 53.0963 131.05C53.2513 129.689 53.3778 128.323 53.5238 126.884Z" fill="#0A210F"/>
<path d="M65.423 69.8702C65.5945 71.2733 65.5909 72.6814 65.3256 74.0723C64.048 75.3379 63.1778 75.1923 62.7117 73.6344C61.9592 72.3841 61.7882 71.09 61.7588 69.6615C61.7221 67.8593 62.4771 65.9706 63.4181 64.3018C64.5385 66.0256 65.211 68.1352 65.423 69.8702ZM78.6014 75.8256C77.7414 78.0035 76.3626 77.7998 74.4665 75.2157C74.479 74.5315 74.5286 73.8493 74.6146 73.1702C74.8544 70.7835 75.4816 68.8836 77.0597 67.0162C77.3095 66.721 77.6062 66.4145 77.9408 66.1091C79.4247 69.2196 79.8458 72.8973 78.6014 75.8256ZM47.8448 73.4726C48.9128 77.3987 52.2729 79.9686 54.5236 83.2186C57.801 87.9532 58.7837 94.0389 59.4818 99.6246C60.1221 104.754 61.8756 111.477 60.6845 116.481C60.2975 118.104 62.7936 118.792 63.1798 117.169C63.932 114.014 63.4861 111.026 62.9777 107.867C62.3665 104.068 62.1767 100.201 61.6386 96.3888C60.721 89.8898 58.6517 83.9894 54.4679 78.8964C51.6716 75.4896 49.6103 73.1437 50.6916 68.4855C51.4888 65.0501 54.0523 61.3908 57.8049 61.0751C59.302 60.9499 60.5775 61.4437 61.6378 62.2878C59.8472 65.2375 58.6963 68.7105 59.3831 72.1225C59.9129 74.7575 61.6839 77.8518 64.6243 77.8976C71.1352 77.9994 67.3027 64.7681 65.2079 62.356C65.1048 62.2379 65.0018 62.13 64.898 62.018C67.1702 59.0612 69.979 58.885 73.1521 60.6791C74.4598 61.4193 75.6152 62.5179 76.5702 63.8181C74.9729 65.2069 73.6349 66.8992 73.0116 68.5883C72.0437 71.2102 70.7613 76.5159 72.8434 78.9463C74.8353 81.2729 77.4022 80.8188 79.5236 78.9698C82.8678 76.0537 82.0298 70.194 80.8529 66.5397C80.6386 65.8738 80.3597 65.211 80.0248 64.5635C82.3221 63.1808 85.1782 62.4273 87.2007 64.1175C88.9113 65.547 89.2223 68.2635 89.3727 70.3131C89.6924 74.671 88.9638 79.1866 87.8776 83.3877C86.8757 87.2608 84.409 90.4824 82.671 94.0267C79.857 99.7672 77.8087 107.91 79.0894 114.293C79.4175 115.929 81.912 115.234 81.5851 113.604C80.3482 107.441 82.7902 99.6501 85.4817 94.159C88.2256 88.5631 90.6931 84.304 91.5724 77.9597C92.5353 71.0085 92.045 57.6011 81.4054 60.9652C80.4917 61.2533 79.5292 61.7237 78.5906 62.3153C74.7227 57.2478 67.6527 54.2421 63.0887 60.173C63.0498 60.2229 63.0136 60.2738 62.9758 60.3247C57.8244 56.7316 51.8207 59.4409 48.9882 65.5623C47.969 67.7656 47.184 71.0473 47.8448 73.4726Z" fill="#0A210F"/>
</svg>
