<?xml version="1.0" encoding="utf-8"?>
<!-- Generator: Adobe Illustrator 28.0.0, SVG Export Plug-In . SVG Version: 6.00 Build 0)  -->
<svg version="1.1" xmlns="http://www.w3.org/2000/svg" xmlns:xlink="http://www.w3.org/1999/xlink" x="0px" y="0px"
	 viewBox="0 0 1200 675" style="enable-background:new 0 0 1200 675;" xml:space="preserve">
<style type="text/css">
	.st0{fill:#FFFFFF;}
	.st1{fill:#1D64A7;}
	.st2{fill:#0A210F;}
	.st3{fill:#C3ECD0;}
	.st4{fill:#93D5E6;}
	.st5{fill:#FFCB03;}
</style>
<g id="Capa_2">
	<rect x="-40" y="-40" class="st0" width="1280" height="755"/>
	<g>
		<g>
			<path class="st2" d="M210.18,478.38V438.6c7.7,3.42,17.96,5.99,29.09,5.99c19.68,0,37.21-12.83,37.21-38.92
				c0-25.66-8.98-35.5-27.8-56.46c-19.25-21.39-38.07-45.34-38.07-85.12c0-58.17,29.51-84.26,70.15-84.26
				c11.98,0,24.81,2.57,31.22,6.42v40.21c-8.98-3.85-18.39-5.99-27.8-5.99c-19.25,0-33.36,12.83-33.36,39.78
				c0,24.81,11.55,35.93,30.37,57.74c19.68,22.67,34.22,43.2,34.22,83.84c0,57.32-32.08,83.41-73.57,83.41
				C230.28,485.22,218.31,482.66,210.18,478.38z"/>
			<path class="st2" d="M334.22,182.82h40.63v299.41h-40.63V182.82z"/>
			<path class="st2" d="M439.44,237.14v245.09h-37.21V182.82l60.31-0.43c8.98,60.74,18.39,140.72,24.81,213.01
				c7.27-72.71,16.25-152.27,26.09-212.58h60.31v299.41h-36.78V235c-11.98,74.42-22.67,170.24-30.37,247.23h-38.07
				C461.68,406.09,451.42,311.99,439.44,237.14z"/>
			<path class="st2" d="M620.8,175.55c14.54,0,21.81,5.56,21.81,17.54c0,11.55-7.27,17.54-21.81,17.54
				c-14.97,0-22.24-5.99-22.24-17.54C598.55,181.11,605.4,175.55,620.8,175.55z M601.12,229.87h38.92v252.36h-38.92V229.87z"/>
		</g>
		<path class="st4" d="M912.14,311.67l63.67,63.67V189.42c0-7.64-5.09-12.73-12.73-12.73h-50.94V311.67z"/>
		<polygon class="st3" points="777.15,176.69 831.91,231.44 870.12,269.65 886.67,286.2 886.67,176.69 		"/>
		<path class="st1" d="M805.17,240.36l-63.67-63.67h-58.58c-7.64,0-12.73,5.09-12.73,12.73v185.92L805.17,240.36z"/>
		<path class="st5" d="M843.54,339.14c13.11-6.18,27.74-9.64,43.13-9.64c2.55,0,5.09,0,7.64,0l-3.82-3.82l0,0l-38.2-38.2L823,258.19
			L670.18,411v58.58c0,7.64,5.09,12.73,12.73,12.73H798.8c-8.91-15.28-14.01-31.84-14.01-50.94
			C784.79,390.74,808.91,355.45,843.54,339.14"/>
		<g>
			<path class="st2" d="M986,510.33l-35.66-35.66c8.91-12.73,12.73-26.74,12.73-43.3c0-42.02-34.38-76.41-76.41-76.41
				c-42.02,0-76.41,34.38-76.41,76.41c0,42.02,34.38,76.41,76.41,76.41c15.28,0,30.56-5.09,43.3-12.73l35.66,35.66
				c5.09,5.09,15.28,5.09,20.38,0C991.09,525.61,991.09,515.42,986,510.33z M886.67,476.4c-24.9,0-45.09-20.19-45.09-45.09
				s20.19-45.09,45.09-45.09c24.9,0,45.09,20.19,45.09,45.09S911.57,476.4,886.67,476.4z"/>
		</g>
	</g>
</g>
<g id="Capa_1">
</g>
</svg>
