<?xml version="1.0" encoding="utf-8"?>
<!-- Generator: Adobe Illustrator 28.0.0, SVG Export Plug-In . SVG Version: 6.00 Build 0)  -->
<svg version="1.1" xmlns="http://www.w3.org/2000/svg" xmlns:xlink="http://www.w3.org/1999/xlink" x="0px" y="0px"
	 viewBox="0 0 675 1200" style="enable-background:new 0 0 675 1200;" xml:space="preserve">
<style type="text/css">
	.st0{fill:#FFFFFF;}
	.st1{fill:#1D64A7;}
	.st2{fill:#0A210F;}
	.st3{fill:#C3ECD0;}
	.st4{fill:#93D5E6;}
	.st5{fill:#FFCB03;}
</style>
<g id="Capa_2">
	<g>
		<path class="st2" d="M122.57,950.32v-39.78c7.7,3.42,17.96,5.99,29.09,5.99c19.68,0,37.21-12.83,37.21-38.92
			c0-25.66-8.98-35.5-27.8-56.46C141.82,799.76,123,775.81,123,736.03c0-58.17,29.51-84.26,70.15-84.26
			c11.98,0,24.81,2.57,31.22,6.42v40.21c-8.98-3.85-18.39-5.99-27.8-5.99c-19.25,0-33.36,12.83-33.36,39.78
			c0,24.81,11.55,35.93,30.37,57.74c19.68,22.67,34.22,43.2,34.22,83.84c0,57.32-32.08,83.41-73.57,83.41
			C142.67,957.17,130.69,954.6,122.57,950.32z"/>
		<path class="st2" d="M246.61,654.76h40.63v299.41h-40.63V654.76z"/>
		<path class="st2" d="M351.83,709.08v245.09h-37.21V654.76l60.31-0.43c8.98,60.74,18.39,140.72,24.81,213.01
			c7.27-72.71,16.25-152.27,26.09-212.58h60.31v299.41h-36.78V706.95c-11.98,74.42-22.67,170.24-30.37,247.23h-38.07
			C374.07,878.04,363.8,783.94,351.83,709.08z"/>
		<path class="st2" d="M513.51,701.81h38.92v252.36h-38.92V701.81z"/>
	</g>
	<g>
		<path class="st4" d="M449.18,357.21l86.57,86.57V190.99c0-10.39-6.93-17.31-17.31-17.31h-69.26V357.21z"/>
		<polygon class="st3" points="265.64,173.67 340.1,248.13 392.04,300.07 414.55,322.58 414.55,173.67 		"/>
		<path class="st1" d="M303.74,260.25l-86.57-86.57h-79.65c-10.39,0-17.31,6.93-17.31,17.31v252.79L303.74,260.25z"/>
		<path class="st5" d="M355.91,394.55c17.83-8.4,37.71-13.1,58.64-13.1c3.46,0,6.93,0,10.39,0l-5.19-5.19l0,0l-51.94-51.94
			l-39.82-39.82L120.2,492.26v79.65c0,10.39,6.93,17.31,17.31,17.31h157.56c-12.12-20.78-19.05-43.29-19.05-69.26
			C276.03,464.71,308.83,416.74,355.91,394.55"/>
		<g>
			<path class="st2" d="M549.6,627.32l-48.48-48.48c12.12-17.31,17.31-36.36,17.31-58.87c0-57.14-46.75-103.89-103.89-103.89
				c-57.14,0-103.89,46.75-103.89,103.89c0,57.14,46.75,103.89,103.89,103.89c20.78,0,41.56-6.93,58.87-17.31l48.48,48.48
				c6.93,6.93,20.78,6.93,27.7,0C556.53,648.09,556.53,634.24,549.6,627.32z M414.55,581.18c-33.86,0-61.31-27.45-61.31-61.31
				s27.45-61.31,61.31-61.31c33.86,0,61.31,27.45,61.31,61.31S448.41,581.18,414.55,581.18z"/>
		</g>
	</g>
</g>
<g id="Capa_1">
</g>
</svg>
